<svg preserveAspectRatio="xMinYMid meet" overflow="visible" style="display: block;" viewBox="0 0 424 32" fill="none" xmlns="http://www.w3.org/2000/svg">
<g id="Logo Container">
<g id="Logo">
<g id="Vector">
<path d="M31.0951 21.2634L42.5972 2.28571H13.1563L22.9748 12.6714L25.8769 7.83133H31.5592L26.2035 16.1601L31.0951 21.2634Z" fill="var(--fill-0, white)"/>
<path d="M15.6014 11.8526L4.51948 29.6987L32.5221 29.7494L23.6308 20.3992L21.0438 24.7833H15.3615L20.3253 16.8833L15.6014 11.8526Z" fill="var(--fill-0, white)"/>
</g>
<g id="XForge">
<path d="M46.4775 25.3179L51.5889 16.6619L46.5274 8.15308H50.2675L53.7332 14.3569H54.182L57.6478 8.15308H61.3879L56.3263 16.6619L61.4377 25.3179H57.6977L54.182 18.9669H53.7332L50.2176 25.3179H46.4775Z" fill="var(--fill-0, white)"/>
<path d="M65.1168 25.3179V8.15308H76.0876V11.0956H68.4081V15.2397H75.4892V18.1822H68.4081V25.3179H65.1168Z" fill="var(--fill-0, white)"/>
<path d="M85.8186 25.6612C84.5885 25.6612 83.4831 25.4159 82.5024 24.9255C81.5217 24.4351 80.7487 23.724 80.1836 22.7922C79.6184 21.8604 79.3358 20.7406 79.3358 19.4328V19.0405C79.3358 17.7327 79.6184 16.6129 80.1836 15.6811C80.7487 14.7493 81.5217 14.0381 82.5024 13.5477C83.4831 13.0573 84.5885 12.8121 85.8186 12.8121C87.0486 12.8121 88.154 13.0573 89.1348 13.5477C90.1155 14.0381 90.8884 14.7493 91.4536 15.6811C92.0187 16.6129 92.3013 17.7327 92.3013 19.0405V19.4328C92.3013 20.7406 92.0187 21.8604 91.4536 22.7922C90.8884 23.724 90.1155 24.4351 89.1348 24.9255C88.154 25.4159 87.0486 25.6612 85.8186 25.6612ZM85.8186 22.9148C86.7827 22.9148 87.5806 22.6124 88.2122 22.0075C88.8439 21.3863 89.1597 20.5035 89.1597 19.3592V19.114C89.1597 17.9697 88.8439 17.0951 88.2122 16.4903C87.5972 15.8691 86.7993 15.5585 85.8186 15.5585C84.8545 15.5585 84.0566 15.8691 83.4249 16.4903C82.7933 17.0951 82.4775 17.9697 82.4775 19.114V19.3592C82.4775 20.5035 82.7933 21.3863 83.4249 22.0075C84.0566 22.6124 84.8545 22.9148 85.8186 22.9148Z" fill="var(--fill-0, white)"/>
<path d="M96.6973 25.3179V13.1554H99.789V14.5286H100.238C100.421 14.0381 100.72 13.6785 101.135 13.4496C101.568 13.2208 102.066 13.1063 102.631 13.1063H104.127V15.8527H102.582C101.784 15.8527 101.127 16.0652 100.612 16.4903C100.097 16.8989 99.8389 17.5365 99.8389 18.4029V25.3179H96.6973Z" fill="var(--fill-0, white)"/>
<path d="M107.042 19.2857V18.8933C107.042 17.6182 107.3 16.5311 107.815 15.632C108.331 14.7166 109.012 14.0218 109.86 13.5477C110.724 13.0573 111.663 12.8121 112.677 12.8121C113.808 12.8121 114.664 13.0083 115.246 13.4006C115.827 13.7929 116.251 14.2016 116.517 14.6267H116.966V13.1554H120.058V27.4757C120.058 28.3094 119.808 28.9715 119.31 29.4619C118.811 29.9687 118.146 30.2221 117.315 30.2221H109.037V27.5248H116.218C116.683 27.5248 116.916 27.2795 116.916 26.7891V23.6259H116.467C116.301 23.8875 116.068 24.1572 115.769 24.4351C115.47 24.6967 115.071 24.9173 114.572 25.0972C114.074 25.277 113.442 25.3669 112.677 25.3669C111.663 25.3669 110.724 25.1299 109.86 24.6558C109.012 24.1654 108.331 23.4706 107.815 22.5715C107.3 21.656 107.042 20.5608 107.042 19.2857ZM113.575 22.6696C114.539 22.6696 115.345 22.3671 115.994 21.7623C116.642 21.1574 116.966 20.3074 116.966 19.2121V18.9669C116.966 17.8553 116.642 17.0052 115.994 16.4167C115.362 15.8118 114.556 15.5094 113.575 15.5094C112.611 15.5094 111.805 15.8118 111.156 16.4167C110.508 17.0052 110.184 17.8553 110.184 18.9669V19.2121C110.184 20.3074 110.508 21.1574 111.156 21.7623C111.805 22.3671 112.611 22.6696 113.575 22.6696Z" fill="var(--fill-0, white)"/>
<path d="M130.672 25.6612C129.442 25.6612 128.353 25.4078 127.406 24.901C126.475 24.3779 125.743 23.6504 125.211 22.7186C124.696 21.7705 124.438 20.6588 124.438 19.3837V19.0895C124.438 17.8144 124.696 16.7109 125.211 15.7791C125.727 14.831 126.45 14.1035 127.381 13.5968C128.312 13.0736 129.392 12.8121 130.622 12.8121C131.835 12.8121 132.891 13.0818 133.789 13.6213C134.686 14.1444 135.384 14.88 135.883 15.8282C136.382 16.76 136.631 17.8471 136.631 19.0895V20.1439H127.63C127.663 20.9776 127.979 21.656 128.577 22.1792C129.176 22.7023 129.907 22.9638 130.772 22.9638C131.653 22.9638 132.301 22.7758 132.716 22.3998C133.132 22.0239 133.448 21.607 133.664 21.1493L136.232 22.4734C135.999 22.8984 135.659 23.3643 135.21 23.8711C134.778 24.3615 134.196 24.7866 133.464 25.1462C132.733 25.4895 131.802 25.6612 130.672 25.6612ZM127.655 17.8389H133.44C133.373 17.136 133.082 16.572 132.567 16.147C132.068 15.7219 131.412 15.5094 130.597 15.5094C129.749 15.5094 129.076 15.7219 128.577 16.147C128.079 16.572 127.771 17.136 127.655 17.8389Z" fill="var(--fill-0, white)"/>
</g>
</g>
<path id="x" d="M162.051 19.9323C160.757 21.1965 159.891 21.8287 159.453 21.8287C159.125 21.8287 158.897 21.5684 158.77 21.0478C158.642 20.5272 158.578 19.6813 158.578 18.51C158.578 17.8964 158.615 16.9575 158.687 15.6932C157.557 16.8831 156.591 18.0452 155.789 19.1793C155.005 20.3134 154.495 21.1501 154.258 21.6892L153.93 22.4701C153.82 22.8234 153.684 23 153.52 23C153.374 23 153.255 22.8141 153.164 22.4422C153.055 22.0704 153 21.7636 153 21.5219C153 21.2988 153.027 21.1036 153.082 20.9363C153.137 20.7503 153.191 20.6295 153.246 20.5737L153.328 20.4622C155.06 18.5843 156.865 16.7158 158.742 14.8566C158.888 13.1461 158.961 12.1979 158.961 12.012C158.961 11.8632 158.952 11.7238 158.934 11.5936C158.934 11.4449 158.924 11.324 158.906 11.2311C158.906 11.1195 158.897 11.0173 158.879 10.9243C158.879 10.8313 158.87 10.757 158.852 10.7012C158.833 10.6454 158.815 10.5989 158.797 10.5618C158.779 10.506 158.76 10.4688 158.742 10.4502C158.742 10.413 158.733 10.3851 158.715 10.3665C158.715 10.3479 158.706 10.3293 158.687 10.3108C158.651 10.2736 158.633 10.2364 158.633 10.1992C158.633 9.9761 158.842 9.7251 159.262 9.44622C159.681 9.14874 160.036 9 160.328 9C160.62 9 160.766 9.37185 160.766 10.1155C160.766 10.7477 160.729 11.7145 160.656 13.0159C162.57 11.1939 163.983 10.0226 164.895 9.50199C165.332 9.27888 165.624 9.16733 165.77 9.16733C165.988 9.16733 166.161 9.38114 166.289 9.80876C166.417 10.2364 166.48 10.5989 166.48 10.8964C166.48 11.0266 166.435 11.1009 166.344 11.1195C166.271 11.1195 166.143 11.0266 165.961 10.8406C165.797 10.6547 165.605 10.5618 165.387 10.5618C165.022 10.5618 164.576 10.7105 164.047 11.008C163.536 11.3054 163.108 11.6029 162.762 11.9004L162.242 12.3466C161.568 12.9044 161.021 13.3878 160.602 13.7968C160.547 14.6335 160.52 15.4608 160.52 16.2789C160.52 18.5471 160.784 19.6813 161.312 19.6813C161.586 19.6813 162.479 18.8725 163.992 17.255C164.794 16.3997 165.733 15.3493 166.809 14.1036C166.863 14.0478 166.909 14.0199 166.945 14.0199C166.982 14.0199 167 14.0571 167 14.1315C167 14.4847 166.863 14.8287 166.59 15.1633C165.004 16.9668 163.491 18.5564 162.051 19.9323Z" fill="var(--fill-0, white)"/>
<g id="Frame" clip-path="url(#clip0_9778_7540)">
<path id="Vector_2" fill-rule="evenodd" clip-rule="evenodd" d="M201.91 23.0985C201.91 21.8639 201.569 20.6735 200.842 19.6153L198.106 15.6913L200.842 11.7672C201.569 10.7531 201.91 9.51859 201.91 8.28404C201.91 5.02135 199.303 2.50818 196.226 2.50818C194.43 2.50818 192.635 3.43408 191.524 5.02135L190.156 6.96133C189.643 4.35998 187.463 2.46409 184.685 2.46409C181.479 2.46409 179 5.10952 179 8.37223V23.1426C179 26.4053 181.522 29.0508 184.685 29.0508C187.42 29.0508 189.558 27.2871 190.113 24.7299L191.31 26.4934C192.421 28.1689 194.259 29.0508 196.055 29.0508C199.303 29.0948 201.91 26.3612 201.91 23.0985ZM203.607 8.8238C203.607 5.37897 206.351 2.46409 209.781 2.46409C213.21 2.46409 215.954 5.37897 215.911 8.8238V22.6915C215.911 26.1364 213.21 29.0512 209.738 29.0512C206.351 29.0512 203.607 26.1805 203.607 22.6915V8.8238ZM239.671 21.7442C239.671 18.927 238.321 16.9462 235.621 15.7577C238.321 14.5692 239.671 12.6324 239.671 9.77115C239.671 5.50136 236.254 2.46409 230.771 2.46409C223.432 2.46409 218.033 8.14247 218.033 15.7577C218.033 23.3729 223.432 29.0512 230.771 29.0512C236.254 29.0512 239.671 26.014 239.671 21.7442ZM263.631 19.6153C264.359 20.6735 264.702 21.8639 264.702 23.0985C264.702 26.3612 262.09 29.0948 258.878 29.0508C257.079 29.0508 255.238 28.1689 254.125 26.4934L252.926 24.7299C252.369 27.2871 250.228 29.0508 247.487 29.0508C244.318 29.0508 241.791 26.4053 241.791 23.1426V8.37223C241.791 5.10952 244.275 2.46409 247.487 2.46409C250.27 2.46409 252.455 4.35998 252.968 6.96133L254.296 5.02135C255.409 3.43408 257.208 2.50818 259.006 2.50818C262.09 2.50818 264.702 5.02135 264.702 8.28404C264.702 9.51859 264.359 10.7531 263.631 11.7672L260.891 15.6913L263.631 19.6153ZM286.34 20.8695C286.34 18.2022 285.064 16.3349 283.151 14.5566L281.578 13.0895C283.874 12.7338 285.405 11.1333 285.405 8.77709C285.405 4.82035 282.386 2.46409 276.009 2.46409C269.759 2.46409 266.103 5.75397 266.103 10.9555C266.103 13.623 267.42 15.4457 269.334 17.2685L270.864 18.7356H270.822C267.973 18.7356 265.975 20.4694 265.975 23.1813C265.975 27.0936 269.121 29.4944 275.839 29.4944C282.428 29.4944 286.34 26.1601 286.34 20.8695ZM318.55 24.4294C319.998 27.5547 322.041 29.0512 324.553 29.0512C329.066 29.0512 332.259 24.7814 330.3 19.9835L325.063 7.30611C323.787 4.18081 321.872 2.46409 318.593 2.46409C315.358 2.46409 313.442 4.18081 312.122 7.30611L306.886 19.9835C304.885 24.7814 308.12 29.0512 312.59 29.0512C315.059 29.0512 317.103 27.5547 318.55 24.4294ZM332.585 9.5094C332.585 5.16682 334.808 2.90691 338.785 2.90691H346.181C350.671 2.90691 354.176 6.45186 354.176 11.016C354.176 13.4975 353.194 15.5358 351.568 16.8208L353.792 20.4988C354.39 21.4737 354.647 22.5372 354.647 23.6449C354.647 26.924 352.166 29.4941 349.046 29.4941C347.121 29.4941 345.24 28.475 344.172 26.6138L343.574 25.506C342.847 27.8545 340.837 29.4941 338.272 29.4941C335.15 29.4941 332.585 26.7467 332.585 23.4234V9.5094ZM366.229 29.4941C369.751 29.4941 372.381 26.7911 372.381 23.512V14.3394C375.223 14.2065 377.557 11.725 377.557 8.62316C377.557 5.43269 375.096 2.90691 372.084 2.90691H360.544C357.532 2.90691 355.071 5.38839 355.071 8.62316C355.071 11.725 357.405 14.1621 360.247 14.3394V23.512C360.247 26.7911 362.919 29.4941 366.229 29.4941ZM395.485 19.4844C397.635 19.9312 399.195 21.8527 399.195 24.3996C399.195 27.2593 397.003 29.5381 394.347 29.4934H385.493C381.446 29.4934 379.254 27.2593 379.254 22.8803V9.52004C379.254 5.18575 381.446 2.90691 385.493 2.90691H394.347C397.003 2.90691 399.195 5.18575 399.195 8.04549C399.195 10.6371 397.677 12.5138 395.485 12.9606C396.496 13.6309 397.045 14.748 397.045 16.2225C397.045 17.697 396.454 18.8141 395.485 19.4844ZM406.579 29.4941C403.458 29.4941 400.893 26.7467 400.893 23.4234V9.5094C400.893 5.16682 403.073 2.90691 407.092 2.90691H414.488C418.978 2.90691 422.484 6.45186 422.484 11.016C422.484 13.4975 421.5 15.5358 419.876 16.8208L422.1 20.4988C422.698 21.4737 422.954 22.5372 422.954 23.6449C422.954 26.924 420.474 29.4941 417.354 29.4941C415.429 29.4941 413.548 28.475 412.48 26.6138L411.88 25.506C411.153 27.8545 409.144 29.4941 406.579 29.4941ZM303.64 23.512C303.64 26.7911 300.962 29.4941 297.519 29.4941C294.203 29.4941 291.525 26.7911 291.525 23.512V14.3394C288.677 14.1621 286.339 11.725 286.339 8.62316C286.339 5.38839 288.805 2.90691 291.823 2.90691H303.342C306.36 2.90691 308.825 5.43269 308.825 8.62316C308.825 11.725 306.488 14.2065 303.64 14.3394V23.512Z" fill="var(--fill-0, #05CE78)"/>
</g>
</g>
<defs>
<clipPath id="clip0_9778_7540">
<rect width="245" height="27.0718" fill="white" transform="translate(179 2.46409)"/>
</clipPath>
</defs>
</svg>
