<svg preserveAspectRatio="none" width="100%" height="100%" overflow="visible" style="display: block;" viewBox="0 0 20 20" fill="none" xmlns="http://www.w3.org/2000/svg">
<g id="notification">
<path id="Vector" d="M16.1167 12.075L15.2833 10.6917C15.1083 10.3833 14.95 9.8 14.95 9.45833V7.35C14.95 5.39167 13.8 3.7 12.1417 2.90833C11.7083 2.14167 10.9083 1.66667 9.99167 1.66667C9.08333 1.66667 8.26667 2.15833 7.83333 2.93333C6.20833 3.74167 5.08333 5.41667 5.08333 7.35V9.45833C5.08333 9.8 4.925 10.3833 4.75 10.6833L3.90833 12.075C3.575 12.6333 3.5 13.25 3.70833 13.8167C3.90833 14.375 4.38333 14.8083 5 15.0167C6.61667 15.5667 8.31667 15.8333 10.0167 15.8333C11.7167 15.8333 13.4167 15.5667 15.0333 15.025C15.6167 14.8333 16.0667 14.3917 16.2833 13.8167C16.5 13.2417 16.4417 12.6083 16.1167 12.075Z" fill="var(--fill-0, black)"/>
<path id="Vector_2" d="M12.3583 16.675C12.0083 17.6417 11.0833 18.3333 10 18.3333C9.34167 18.3333 8.69167 18.0667 8.23333 17.5917C7.96667 17.3417 7.76667 17.0083 7.65 16.6667C7.75833 16.6833 7.86667 16.6917 7.98333 16.7083C8.175 16.7333 8.375 16.7583 8.575 16.775C9.05 16.8167 9.53333 16.8417 10.0167 16.8417C10.4917 16.8417 10.9667 16.8167 11.4333 16.775C11.6083 16.7583 11.7833 16.75 11.95 16.725C12.0833 16.7083 12.2167 16.6917 12.3583 16.675Z" fill="var(--fill-0, black)"/>
<g id="Vector_3" opacity="0">
</g>
</g>
</svg>
