<svg preserveAspectRatio="xMinYMid meet" overflow="visible" style="display: block;" viewBox="0 0 319.24 24" fill="none" xmlns="http://www.w3.org/2000/svg">
<g id="Navigation Item Container">
<g id="Navigation Item">
<g id="Vector">
<path d="M22.9354 15.9476L31.4192 1.71429H9.70396L16.9459 9.50354L19.0865 5.8735H23.2777L19.3274 12.1201L22.9354 15.9476Z" fill="white"/>
<path d="M11.5074 8.88942L3.33352 22.274L23.9879 22.312L17.4298 15.2994L15.5216 18.5874H11.3305L14.9917 12.6625L11.5074 8.88942Z" fill="white"/>
</g>
<g id="XForge">
<path d="M34.2815 18.9885L38.0517 12.4965L34.3183 6.11489H37.0769L39.6333 10.7678H39.9643L42.5206 6.11489H45.2792L41.5459 12.4965L45.316 18.9885H42.5574L39.9643 14.2252H39.6333L37.0402 18.9885H34.2815Z" fill="white"/>
<path d="M48.0297 18.9885V6.11489H56.1216V8.32179H50.4572V11.4298H55.6802V13.6367H50.4572V18.9885H48.0297Z" fill="white"/>
<path d="M63.299 19.2459C62.3918 19.2459 61.5764 19.062 60.8531 18.6942C60.1297 18.3264 59.5596 17.7931 59.1427 17.0942C58.7259 16.3954 58.5174 15.5555 58.5174 14.5747V14.2804C58.5174 13.2996 58.7259 12.4597 59.1427 11.7609C59.5596 11.062 60.1297 10.5287 60.8531 10.1609C61.5764 9.79305 62.3918 9.60914 63.299 9.60914C64.2063 9.60914 65.0216 9.79305 65.745 10.1609C66.4684 10.5287 67.0385 11.062 67.4554 11.7609C67.8722 12.4597 68.0806 13.2996 68.0806 14.2804V14.5747C68.0806 15.5555 67.8722 16.3954 67.4554 17.0942C67.0385 17.7931 66.4684 18.3264 65.745 18.6942C65.0216 19.062 64.2063 19.2459 63.299 19.2459ZM63.299 17.1862C64.0102 17.1862 64.5987 16.9593 65.0646 16.5057C65.5305 16.0398 65.7634 15.3777 65.7634 14.5195V14.3356C65.7634 13.4773 65.5305 12.8214 65.0646 12.3678C64.6109 11.9019 64.0224 11.6689 63.299 11.6689C62.5879 11.6689 61.9994 11.9019 61.5335 12.3678C61.0676 12.8214 60.8347 13.4773 60.8347 14.3356V14.5195C60.8347 15.3777 61.0676 16.0398 61.5335 16.5057C61.9994 16.9593 62.5879 17.1862 63.299 17.1862Z" fill="white"/>
<path d="M71.323 18.9885V9.86662H73.6035V10.8965H73.9345C74.0694 10.5287 74.2901 10.259 74.5966 10.0873C74.9154 9.91566 75.2832 9.82983 75.7 9.82983H76.8035V11.8896H75.6633C75.0748 11.8896 74.5905 12.049 74.2104 12.3678C73.8303 12.6743 73.6403 13.1524 73.6403 13.8023V18.9885H71.323Z" fill="white"/>
<path d="M78.9535 14.4643V14.1701C78.9535 13.2137 79.1435 12.3984 79.5236 11.7241C79.9037 11.0375 80.4064 10.5164 81.0316 10.1609C81.6692 9.79305 82.3619 9.60914 83.1098 9.60914C83.9435 9.60914 84.5749 9.75627 85.0041 10.0505C85.4332 10.3448 85.7458 10.6513 85.942 10.9701H86.273V9.86662H88.5535V20.6069C88.5535 21.2322 88.3696 21.7287 88.0018 22.0965C87.6339 22.4766 87.1435 22.6666 86.5305 22.6666H80.4247V20.6436H85.7213C86.0646 20.6436 86.2362 20.4597 86.2362 20.0919V17.7195H85.9052C85.7826 17.9157 85.6109 18.118 85.3903 18.3264C85.1696 18.5226 84.8753 18.6881 84.5075 18.823C84.1397 18.9578 83.6738 19.0253 83.1098 19.0253C82.3619 19.0253 81.6692 18.8475 81.0316 18.4919C80.4064 18.1241 79.9037 17.603 79.5236 16.9287C79.1435 16.2421 78.9535 15.4206 78.9535 14.4643ZM83.7719 17.0023C84.483 17.0023 85.0776 16.7754 85.5558 16.3218C86.0339 15.8682 86.273 15.2306 86.273 14.4092V14.2252C86.273 13.3915 86.0339 12.754 85.5558 12.3126C85.0899 11.859 84.4952 11.6321 83.7719 11.6321C83.0608 11.6321 82.4661 11.859 81.988 12.3126C81.5098 12.754 81.2707 13.3915 81.2707 14.2252V14.4092C81.2707 15.2306 81.5098 15.8682 81.988 16.3218C82.4661 16.7754 83.0608 17.0023 83.7719 17.0023Z" fill="white"/>
<path d="M96.3823 19.2459C95.4751 19.2459 94.672 19.0559 93.9732 18.6758C93.2866 18.2835 92.7471 17.7379 92.3548 17.039C91.9747 16.3279 91.7847 15.4942 91.7847 14.5379V14.3172C91.7847 13.3609 91.9747 12.5333 92.3548 11.8344C92.7348 11.1233 93.2682 10.5777 93.9548 10.1977C94.6414 9.80531 95.4383 9.60914 96.3456 9.60914C97.2406 9.60914 98.0191 9.81144 98.6812 10.216C99.3433 10.6084 99.8582 11.1601 100.226 11.8712C100.594 12.5701 100.778 13.3854 100.778 14.3172V15.108H94.1387C94.1632 15.7333 94.3961 16.2421 94.8375 16.6344C95.2789 17.0268 95.8184 17.2229 96.4559 17.2229C97.1057 17.2229 97.5839 17.082 97.8904 16.8C98.1969 16.518 98.4299 16.2053 98.5892 15.862L100.483 16.8551C100.312 17.1739 100.061 17.5233 99.7295 17.9034C99.4107 18.2712 98.9816 18.59 98.4421 18.8597C97.9027 19.1172 97.2161 19.2459 96.3823 19.2459ZM94.1571 13.3793H98.4237C98.3747 12.8521 98.1601 12.4291 97.78 12.1103C97.4122 11.7915 96.9279 11.6321 96.3272 11.6321C95.7019 11.6321 95.2053 11.7915 94.8375 12.1103C94.4697 12.4291 94.2429 12.8521 94.1571 13.3793Z" fill="white"/>
</g>
</g>
<path id="x" d="M122.62 14.82C121.673 15.7267 121.04 16.18 120.72 16.18C120.48 16.18 120.313 15.9933 120.22 15.62C120.127 15.2467 120.08 14.64 120.08 13.8C120.08 13.36 120.107 12.6867 120.16 11.78C119.333 12.6333 118.627 13.4667 118.04 14.28C117.467 15.0933 117.093 15.6933 116.92 16.08L116.68 16.64C116.6 16.8933 116.5 17.02 116.38 17.02C116.273 17.02 116.187 16.8867 116.12 16.62C116.04 16.3533 116 16.1333 116 15.96C116 15.8 116.02 15.66 116.06 15.54C116.1 15.4067 116.14 15.32 116.18 15.28L116.24 15.2C117.507 13.8533 118.827 12.5133 120.2 11.18C120.307 9.95333 120.36 9.27333 120.36 9.14C120.36 9.03333 120.353 8.93333 120.34 8.84C120.34 8.73333 120.333 8.64667 120.32 8.58C120.32 8.5 120.313 8.42667 120.3 8.36C120.3 8.29333 120.293 8.24 120.28 8.2C120.267 8.16 120.253 8.12667 120.24 8.1C120.227 8.06 120.213 8.03333 120.2 8.02C120.2 7.99333 120.193 7.97333 120.18 7.96C120.18 7.94667 120.173 7.93333 120.16 7.92C120.133 7.89333 120.12 7.86667 120.12 7.84C120.12 7.68 120.273 7.5 120.58 7.3C120.887 7.08667 121.147 6.98 121.36 6.98C121.573 6.98 121.68 7.24667 121.68 7.78C121.68 8.23333 121.653 8.92667 121.6 9.86C123 8.55333 124.033 7.71333 124.7 7.34C125.02 7.18 125.233 7.1 125.34 7.1C125.5 7.1 125.627 7.25333 125.72 7.56C125.813 7.86667 125.86 8.12667 125.86 8.34C125.86 8.43333 125.827 8.48667 125.76 8.5C125.707 8.5 125.613 8.43333 125.48 8.3C125.36 8.16667 125.22 8.1 125.06 8.1C124.793 8.1 124.467 8.20667 124.08 8.42C123.707 8.63333 123.393 8.84667 123.14 9.06L122.76 9.38C122.267 9.78 121.867 10.1267 121.56 10.42C121.52 11.02 121.5 11.6133 121.5 12.2C121.5 13.8267 121.693 14.64 122.08 14.64C122.28 14.64 122.933 14.06 124.04 12.9C124.627 12.2867 125.313 11.5333 126.1 10.64C126.14 10.6 126.173 10.58 126.2 10.58C126.227 10.58 126.24 10.6067 126.24 10.66C126.24 10.9133 126.14 11.16 125.94 11.4C124.78 12.6933 123.673 13.8333 122.62 14.82Z" fill="white"/>
<g id="Kickstarter Logo" clip-path="url(#clip0_9778_7176)">
<path id="Vector_2" fill-rule="evenodd" clip-rule="evenodd" d="M155.166 17.2442C155.166 16.3321 154.913 15.4527 154.376 14.6709L152.355 11.7719L154.376 8.87291C154.913 8.12373 155.166 7.21169 155.166 6.29964C155.166 3.88924 153.239 2.03257 150.966 2.03257C149.64 2.03257 148.313 2.71661 147.492 3.88924L146.482 5.32245C146.103 3.40064 144.492 2 142.44 2C140.072 2 138.24 3.95438 138.24 6.36479V17.2768C138.24 19.6872 140.103 21.6416 142.44 21.6416C144.461 21.6416 146.04 20.3386 146.45 18.4494L147.334 19.7523C148.155 20.9901 149.513 21.6416 150.84 21.6416C153.239 21.6741 155.166 19.6546 155.166 17.2442ZM156.419 6.6984C156.419 4.15344 158.446 2 160.98 2C163.514 2 165.54 4.15344 165.509 6.6984V16.9435C165.509 19.4885 163.514 21.6419 160.948 21.6419C158.446 21.6419 156.419 19.5211 156.419 16.9435V6.6984ZM183.062 16.2437C183.062 14.1624 182.065 12.699 180.07 11.821C182.065 10.9429 183.062 9.51207 183.062 7.39828C183.062 4.24386 180.538 2 176.487 2C171.065 2 167.077 6.19505 167.077 11.821C167.077 17.4469 171.065 21.6419 176.487 21.6419C180.538 21.6419 183.062 19.3981 183.062 16.2437ZM200.764 14.6709C201.301 15.4527 201.555 16.3321 201.555 17.2442C201.555 19.6546 199.625 21.6741 197.252 21.6416C195.923 21.6416 194.563 20.9901 193.74 19.7523L192.854 18.4494C192.443 20.3386 190.861 21.6416 188.837 21.6416C186.495 21.6416 184.629 19.6872 184.629 17.2768V6.36479C184.629 3.95438 186.464 2 188.837 2C190.893 2 192.506 3.40064 192.886 5.32245L193.867 3.88924C194.689 2.71661 196.018 2.03257 197.347 2.03257C199.625 2.03257 201.555 3.88924 201.555 6.29964C201.555 7.21169 201.301 8.12373 200.764 8.87291L198.739 11.7719L200.764 14.6709ZM217.54 15.5975C217.54 13.6269 216.598 12.2474 215.184 10.9336L214.022 9.84978C215.718 9.58702 216.849 8.40463 216.849 6.66389C216.849 3.74075 214.619 2 209.908 2C205.29 2 202.589 4.43048 202.589 8.27325C202.589 10.2439 203.563 11.5905 204.976 12.9371L206.107 14.021H206.076C203.971 14.021 202.495 15.3019 202.495 17.3054C202.495 20.1957 204.819 21.9693 209.782 21.9693C214.65 21.9693 217.54 19.506 217.54 15.5975ZM241.336 18.2274C242.406 20.5363 243.915 21.6419 245.771 21.6419C249.105 21.6419 251.464 18.4875 250.017 14.9429L246.148 5.57717C245.205 3.26827 243.79 2 241.368 2C238.978 2 237.562 3.26827 236.587 5.57717L232.719 14.9429C231.241 18.4875 233.631 21.6419 236.933 21.6419C238.757 21.6419 240.267 20.5363 241.336 18.2274ZM251.705 7.2049C251.705 3.99671 253.347 2.32715 256.285 2.32715H261.749C265.066 2.32715 267.656 4.94607 267.656 8.31794C267.656 10.1512 266.93 11.6571 265.729 12.6064L267.372 15.3236C267.814 16.0438 268.004 16.8295 268.004 17.6479C268.004 20.0704 266.171 21.9691 263.866 21.9691C262.444 21.9691 261.054 21.2162 260.265 19.8412L259.823 19.0228C259.286 20.7578 257.801 21.9691 255.906 21.9691C253.6 21.9691 251.705 19.9394 251.705 17.4842V7.2049ZM276.56 21.9691C279.162 21.9691 281.105 19.9722 281.105 17.5497V10.7732C283.205 10.675 284.929 8.84173 284.929 6.55017C284.929 4.19313 283.111 2.32715 280.886 2.32715H272.36C270.135 2.32715 268.317 4.1604 268.317 6.55017C268.317 8.84173 270.041 10.6422 272.141 10.7732V17.5497C272.141 19.9722 274.115 21.9691 276.56 21.9691ZM298.174 14.5742C299.762 14.9043 300.915 16.3238 300.915 18.2054C300.915 20.3181 299.295 22.0016 297.333 21.9686H290.792C287.802 21.9686 286.183 20.3181 286.183 17.083V7.21276C286.183 4.0107 287.802 2.32715 290.792 2.32715H297.333C299.295 2.32715 300.915 4.0107 300.915 6.1234C300.915 8.03803 299.793 9.42449 298.174 9.75459C298.921 10.2498 299.326 11.075 299.326 12.1644C299.326 13.2537 298.89 14.079 298.174 14.5742ZM306.37 21.9691C304.064 21.9691 302.169 19.9394 302.169 17.4842V7.2049C302.169 3.99671 303.78 2.32715 306.749 2.32715H312.213C315.53 2.32715 318.12 4.94607 318.12 8.31794C318.12 10.1512 317.393 11.6571 316.193 12.6064L317.836 15.3236C318.278 16.0438 318.467 16.8295 318.467 17.6479C318.467 20.0704 316.635 21.9691 314.33 21.9691C312.908 21.9691 311.518 21.2162 310.729 19.8412L310.286 19.0228C309.749 20.7578 308.265 21.9691 306.37 21.9691ZM230.321 17.5497C230.321 19.9722 228.342 21.9691 225.799 21.9691C223.349 21.9691 221.371 19.9722 221.371 17.5497V10.7732C219.267 10.6422 217.54 8.84173 217.54 6.55017C217.54 4.1604 219.361 2.32715 221.591 2.32715H230.101C232.331 2.32715 234.152 4.19313 234.152 6.55017C234.152 8.84173 232.425 10.675 230.321 10.7732V17.5497Z" fill="#05CE78"/>
</g>
</g>
<defs>
<clipPath id="clip0_9778_7176">
<rect width="181" height="20" fill="white" transform="translate(138.24 2)"/>
</clipPath>
</defs>
</svg>
