<svg preserveAspectRatio="none" width="100%" height="100%" overflow="visible" style="display: block;" viewBox="0 0 409.24 28" fill="none" xmlns="http://www.w3.org/2000/svg">
<g id="Logos">
<g id="Navigation Item">
<g id="Vector">
<path d="M26.685 18.6054L36.5556 1.99994H11.2907L19.7165 11.0874L22.207 6.85235H27.0833L22.4872 14.14L26.685 18.6054Z" fill="var(--fill-0, white)"/>
<path d="M13.389 10.3709L3.87896 25.9863L27.9095 26.0306L20.2794 17.8493L18.0594 21.6853H13.1831L17.4428 14.7728L13.389 10.3709Z" fill="var(--fill-0, white)"/>
</g>
<g id="XForge">
<path d="M39.8849 22.1532L44.2713 14.5792L39.9277 7.13401H43.1373L46.1114 12.5624H46.4966L49.4708 7.13401H52.6803L48.3367 14.5792L52.7231 22.1532H49.5136L46.4966 16.5961H46.1114L43.0945 22.1532H39.8849Z" fill="var(--fill-0, white)"/>
<path d="M55.8803 22.1532V7.13401H65.295V9.70873H58.7047V13.3348H64.7815V15.9095H58.7047V22.1532H55.8803Z" fill="var(--fill-0, white)"/>
<path d="M73.6457 22.4536C72.5901 22.4536 71.6415 22.239 70.7999 21.8099C69.9583 21.3808 69.2949 20.7586 68.81 19.9432C68.325 19.1279 68.0825 18.1481 68.0825 17.0038V16.6605C68.0825 15.5161 68.325 14.5363 68.81 13.721C69.2949 12.9057 69.9583 12.2834 70.7999 11.8543C71.6415 11.4252 72.5901 11.2106 73.6457 11.2106C74.7013 11.2106 75.6499 11.4252 76.4915 11.8543C77.3331 12.2834 77.9964 12.9057 78.4814 13.721C78.9664 14.5363 79.2089 15.5161 79.2089 16.6605V17.0038C79.2089 18.1481 78.9664 19.1279 78.4814 19.9432C77.9964 20.7586 77.3331 21.3808 76.4915 21.8099C75.6499 22.239 74.7013 22.4536 73.6457 22.4536ZM73.6457 20.0505C74.473 20.0505 75.1577 19.7859 75.6998 19.2566C76.2418 18.7131 76.5129 17.9407 76.5129 16.9394V16.7248C76.5129 15.7236 76.2418 14.9583 75.6998 14.429C75.172 13.8855 74.4873 13.6137 73.6457 13.6137C72.8183 13.6137 72.1336 13.8855 71.5916 14.429C71.0495 14.9583 70.7785 15.7236 70.7785 16.7248V16.9394C70.7785 17.9407 71.0495 18.7131 71.5916 19.2566C72.1336 19.7859 72.8183 20.0505 73.6457 20.0505Z" fill="var(--fill-0, white)"/>
<path d="M82.9813 22.1532V11.511H85.6345V12.7126H86.0196C86.1766 12.2834 86.4333 11.9688 86.7899 11.7685C87.1608 11.5682 87.5888 11.4681 88.0737 11.4681H89.3576V13.8712H88.031C87.3463 13.8712 86.7828 14.0571 86.3406 14.429C85.8984 14.7866 85.6773 15.3445 85.6773 16.1026V22.1532H82.9813Z" fill="var(--fill-0, white)"/>
<path d="M91.859 16.875V16.5317C91.859 15.416 92.0801 14.4648 92.5223 13.6781C92.9645 12.8771 93.5494 12.2691 94.2769 11.8543C95.0186 11.4252 95.8246 11.2106 96.6947 11.2106C97.6647 11.2106 98.3994 11.3823 98.8986 11.7256C99.3979 12.0689 99.7616 12.4265 99.9899 12.7984H100.375V11.511H103.028V24.0413C103.028 24.7708 102.814 25.3501 102.386 25.7793C101.958 26.2227 101.388 26.4444 100.675 26.4444H93.5708V24.0842H99.7331C100.133 24.0842 100.332 23.8697 100.332 23.4406V20.6727H99.9471C99.8044 20.9016 99.6047 21.1376 99.348 21.3808C99.0912 21.6096 98.7488 21.8027 98.3209 21.9601C97.893 22.1174 97.3509 22.1961 96.6947 22.1961C95.8246 22.1961 95.0186 21.9887 94.2769 21.5739C93.5494 21.1448 92.9645 20.5368 92.5223 19.7501C92.0801 18.9491 91.859 17.9907 91.859 16.875ZM97.465 19.8359C98.2924 19.8359 98.9842 19.5713 99.5405 19.0421C100.097 18.5128 100.375 17.769 100.375 16.8107V16.5961C100.375 15.6234 100.097 14.8796 99.5405 14.3647C98.9985 13.8354 98.3066 13.5708 97.465 13.5708C96.6377 13.5708 95.9458 13.8354 95.3895 14.3647C94.8332 14.8796 94.555 15.6234 94.555 16.5961V16.8107C94.555 17.769 94.8332 18.5128 95.3895 19.0421C95.9458 19.5713 96.6377 19.8359 97.465 19.8359Z" fill="var(--fill-0, white)"/>
<path d="M112.137 22.4536C111.081 22.4536 110.147 22.2319 109.334 21.7884C108.535 21.3307 107.907 20.6942 107.451 19.8789C107.009 19.0492 106.788 18.0766 106.788 16.9608V16.7034C106.788 15.5877 107.009 14.6221 107.451 13.8068C107.893 12.9772 108.514 12.3407 109.312 11.8972C110.111 11.4395 111.038 11.2106 112.094 11.2106C113.135 11.2106 114.041 11.4467 114.811 11.9187C115.582 12.3764 116.181 13.0201 116.609 13.8497C117.037 14.6651 117.251 15.6163 117.251 16.7034V17.626H109.526C109.555 18.3555 109.826 18.9491 110.339 19.4068C110.853 19.8646 111.481 20.0934 112.222 20.0934C112.978 20.0934 113.535 19.9289 113.891 19.5999C114.248 19.2709 114.519 18.9062 114.704 18.5057L116.908 19.6643C116.709 20.0362 116.416 20.4439 116.031 20.8873C115.66 21.3164 115.161 21.6883 114.533 22.003C113.906 22.3034 113.107 22.4536 112.137 22.4536ZM109.548 15.6091H114.512C114.455 14.9941 114.205 14.5006 113.763 14.1287C113.335 13.7568 112.772 13.5708 112.073 13.5708C111.345 13.5708 110.767 13.7568 110.339 14.1287C109.912 14.5006 109.648 14.9941 109.548 15.6091Z" fill="var(--fill-0, white)"/>
</g>
</g>
<path id="x" d="M139.62 16.82C138.673 17.7267 138.04 18.18 137.72 18.18C137.48 18.18 137.313 17.9933 137.22 17.62C137.127 17.2467 137.08 16.64 137.08 15.8C137.08 15.36 137.107 14.6867 137.16 13.78C136.333 14.6333 135.627 15.4667 135.04 16.28C134.467 17.0933 134.093 17.6933 133.92 18.08L133.68 18.64C133.6 18.8933 133.5 19.02 133.38 19.02C133.273 19.02 133.187 18.8867 133.12 18.62C133.04 18.3533 133 18.1333 133 17.96C133 17.8 133.02 17.66 133.06 17.54C133.1 17.4067 133.14 17.32 133.18 17.28L133.24 17.2C134.507 15.8533 135.827 14.5133 137.2 13.18C137.307 11.9533 137.36 11.2733 137.36 11.14C137.36 11.0333 137.353 10.9333 137.34 10.84C137.34 10.7333 137.333 10.6467 137.32 10.58C137.32 10.5 137.313 10.4267 137.3 10.36C137.3 10.2933 137.293 10.24 137.28 10.2C137.267 10.16 137.253 10.1267 137.24 10.1C137.227 10.06 137.213 10.0333 137.2 10.02C137.2 9.99333 137.193 9.97333 137.18 9.96C137.18 9.94667 137.173 9.93333 137.16 9.92C137.133 9.89333 137.12 9.86667 137.12 9.84C137.12 9.68 137.273 9.5 137.58 9.3C137.887 9.08667 138.147 8.98 138.36 8.98C138.573 8.98 138.68 9.24667 138.68 9.78C138.68 10.2333 138.653 10.9267 138.6 11.86C140 10.5533 141.033 9.71333 141.7 9.34C142.02 9.18 142.233 9.1 142.34 9.1C142.5 9.1 142.627 9.25333 142.72 9.56C142.813 9.86667 142.86 10.1267 142.86 10.34C142.86 10.4333 142.827 10.4867 142.76 10.5C142.707 10.5 142.613 10.4333 142.48 10.3C142.36 10.1667 142.22 10.1 142.06 10.1C141.793 10.1 141.467 10.2067 141.08 10.42C140.707 10.6333 140.393 10.8467 140.14 11.06L139.76 11.38C139.267 11.78 138.867 12.1267 138.56 12.42C138.52 13.02 138.5 13.6133 138.5 14.2C138.5 15.8267 138.693 16.64 139.08 16.64C139.28 16.64 139.933 16.06 141.04 14.9C141.627 14.2867 142.313 13.5333 143.1 12.64C143.14 12.6 143.173 12.58 143.2 12.58C143.227 12.58 143.24 12.6067 143.24 12.66C143.24 12.9133 143.14 13.16 142.94 13.4C141.78 14.6933 140.673 15.8333 139.62 16.82Z" fill="var(--fill-0, white)"/>
<g id="Kickstarter Logo" clip-path="url(#clip0_9885_63438)">
<path id="Vector_2" fill-rule="evenodd" clip-rule="evenodd" d="M178.992 21.3419C178.992 20.0649 178.638 18.8338 177.884 17.7393L175.048 13.6807L177.884 9.62207C178.638 8.57322 178.992 7.29637 178.992 6.0195C178.992 2.64494 176.289 0.0456023 173.098 0.0456023C171.237 0.0456023 169.376 1.00325 168.224 2.64494L166.806 4.65143C166.274 1.9609 164.014 0 161.134 0C157.81 0 155.24 2.73613 155.24 6.11071V21.3875C155.24 24.7621 157.855 27.4982 161.134 27.4982C163.97 27.4982 166.185 25.674 166.762 23.0292L168.002 24.8532C169.154 26.5861 171.06 27.4982 172.921 27.4982C176.289 27.5437 178.992 24.7164 178.992 21.3419ZM180.751 6.57776C180.751 3.01482 183.596 0 187.151 0C190.707 0 193.551 3.01482 193.507 6.57776V20.9209C193.507 24.4839 190.707 27.4987 187.107 27.4987C183.596 27.4987 180.751 24.5295 180.751 20.9209V6.57776ZM218.139 19.9412C218.139 17.0274 216.74 14.9786 213.941 13.7494C216.74 12.5201 218.139 10.5169 218.139 7.55759C218.139 3.1414 214.597 0 208.913 0C201.304 0 195.707 5.87307 195.707 13.7494C195.707 21.6257 201.304 27.4987 208.913 27.4987C214.597 27.4987 218.139 24.3573 218.139 19.9412ZM242.98 17.7393C243.735 18.8338 244.09 20.0649 244.09 21.3419C244.09 24.7164 241.382 27.5437 238.052 27.4982C236.188 27.4982 234.279 26.5861 233.124 24.8532L231.881 23.0292C231.304 25.674 229.084 27.4982 226.243 27.4982C222.958 27.4982 220.338 24.7621 220.338 21.3875V6.11071C220.338 2.73613 222.913 0 226.243 0C229.129 0 231.393 1.9609 231.926 4.65143L233.302 2.64494C234.456 1.00325 236.321 0.0456023 238.185 0.0456023C241.382 0.0456023 244.09 2.64494 244.09 6.0195C244.09 7.29637 243.735 8.57322 242.98 9.62207L240.139 13.6807L242.98 17.7393ZM266.523 19.0365C266.523 16.2777 265.201 14.3464 263.217 12.5071L261.586 10.9897C263.966 10.6218 265.553 8.96648 265.553 6.52945C265.553 2.43705 262.424 0 255.812 0C249.333 0 245.542 3.40267 245.542 8.78255C245.542 11.5415 246.909 13.4267 248.892 15.3119L250.479 16.8294H250.435C247.482 16.8294 245.41 18.6227 245.41 21.4276C245.41 25.474 248.672 27.957 255.636 27.957C262.468 27.957 266.523 24.5084 266.523 19.0365ZM299.916 22.7184C301.418 25.9508 303.535 27.4987 306.14 27.4987C310.819 27.4987 314.129 23.0825 312.098 18.1201L306.669 5.00804C305.346 1.77558 303.36 0 299.961 0C296.607 0 294.62 1.77558 293.252 5.00804L287.823 18.1201C285.749 23.0825 289.103 27.4987 293.738 27.4987C296.297 27.4987 298.416 25.9508 299.916 22.7184ZM314.467 7.28686C314.467 2.79539 316.771 0.458007 320.894 0.458007H328.562C333.217 0.458007 336.851 4.1245 336.851 8.84512C336.851 11.4117 335.833 13.5199 334.147 14.849L336.453 18.653C337.073 19.6613 337.34 20.7613 337.34 21.9071C337.34 25.2986 334.767 27.9567 331.533 27.9567C329.537 27.9567 327.587 26.9027 326.48 24.9777L325.859 23.8319C325.106 26.2609 323.022 27.9567 320.362 27.9567C317.126 27.9567 314.467 25.1152 314.467 21.6779V7.28686ZM349.347 27.9567C352.998 27.9567 355.725 25.1611 355.725 21.7696V12.2825C358.672 12.145 361.091 9.57842 361.091 6.37024C361.091 3.07038 358.54 0.458007 355.417 0.458007H343.453C340.33 0.458007 337.779 3.02456 337.779 6.37024C337.779 9.57842 340.198 12.0991 343.145 12.2825V21.7696C343.145 25.1611 345.915 27.9567 349.347 27.9567ZM379.678 17.6039C381.906 18.066 383.524 20.0533 383.524 22.6876C383.524 25.6453 381.251 28.0022 378.498 27.956H369.319C365.123 27.956 362.851 25.6453 362.851 21.1162V7.29786C362.851 2.81498 365.123 0.458007 369.319 0.458007H378.498C381.251 0.458007 383.524 2.81498 383.524 5.77276C383.524 8.45324 381.95 10.3943 379.678 10.8564C380.726 11.5497 381.294 12.705 381.294 14.2302C381.294 15.7552 380.683 16.9106 379.678 17.6039ZM391.179 27.9567C387.943 27.9567 385.284 25.1152 385.284 21.6779V7.28686C385.284 2.79539 387.545 0.458007 391.711 0.458007H399.379C404.034 0.458007 407.668 4.1245 407.668 8.84512C407.668 11.4117 406.648 13.5199 404.964 14.849L407.27 18.653C407.89 19.6613 408.155 20.7613 408.155 21.9071C408.155 25.2986 405.584 27.9567 402.35 27.9567C400.354 27.9567 398.404 26.9027 397.296 24.9777L396.675 23.8319C395.921 26.2609 393.839 27.9567 391.179 27.9567ZM284.458 21.7696C284.458 25.1611 281.682 27.9567 278.112 27.9567C274.675 27.9567 271.899 25.1611 271.899 21.7696V12.2825C268.946 12.0991 266.522 9.57842 266.522 6.37024C266.522 3.02456 269.078 0.458007 272.207 0.458007H284.15C287.279 0.458007 289.835 3.07038 289.835 6.37024C289.835 9.57842 287.411 12.145 284.458 12.2825V21.7696Z" fill="var(--fill-0, #05CE78)"/>
</g>
</g>
<defs>
<clipPath id="clip0_9885_63438">
<rect width="254" height="28" fill="white" transform="translate(155.24)"/>
</clipPath>
</defs>
</svg>
