<svg width="168" height="80" viewBox="0 0 168 80" fill="none" xmlns="http://www.w3.org/2000/svg">
<path fill-rule="evenodd" clip-rule="evenodd" d="M57.0475 3.53391C56.9624 3.97881 56.9594 4.60289 57.0409 4.92094L57.189 5.49918L70.358 5.55914C83.4259 5.6184 83.5275 5.62256 83.5962 6.0927C83.6406 6.39733 81.6128 9.59849 77.9253 15.0448C57.5213 45.1807 56.5284 46.6971 56.8578 47.2191C56.922 47.3212 57.2923 47.5654 57.6805 47.7621C58.3695 48.1112 58.4035 48.1015 59.1202 47.3554C59.5238 46.9351 61.7158 43.8307 63.9913 40.4568C88.2466 4.49363 88.6072 3.94872 88.6072 3.27187V2.72534H72.9047H57.2025L57.0475 3.53391ZM102.784 2.97719C100.391 3.23368 97.2761 3.96145 95.404 4.70104C91.2878 6.32719 86.5597 10.2024 84.1177 13.9513C82.7834 15.9996 80.4264 19.558 71.4676 33.0494C68.6352 37.3145 65.3256 42.3008 64.1125 44.1302C62.8994 45.9594 61.9067 47.5459 61.9067 47.6559C61.9067 48.1295 63.8563 48.2115 75.1189 48.2115H87.0318L87.2525 47.5631C87.4028 47.1212 87.3813 46.6973 87.1845 46.2321L86.8957 45.5494H76.9929C68.5336 45.5494 67.071 45.5001 66.9581 45.2117C66.8841 45.0235 67.394 44.0249 68.1102 42.9547C68.8165 41.8992 70.7762 38.9522 72.465 36.4059C80.3407 24.5304 79.9101 25.1235 80.3392 25.558C80.4475 25.6679 80.6996 26.92 80.8992 28.3406C81.3824 31.7772 82.2647 34.2902 83.8637 36.7834C86.7386 41.2663 90.9533 44.7374 95.5046 46.3705C99.7058 47.8781 99.8565 47.9057 104.557 48.0288C110.706 48.1899 111.525 47.9487 110.838 46.1779L110.621 45.6191L105.69 45.4948C100.836 45.3726 100.722 45.358 98.2871 44.558C95.2459 43.5587 92.6406 42.202 90.9046 40.7135C85.7979 36.3358 83.4067 31.5705 83.4105 25.7786C83.4143 20.0476 85.5487 15.3522 90.0289 11.2207C94.5328 7.06701 100.256 5.20219 107.302 5.59224C109.933 5.73784 110.126 5.71863 110.59 5.26377C110.901 4.95914 111.056 4.55405 111.01 4.16701C110.95 3.66724 110.752 3.50127 109.945 3.27349C108.512 2.86886 105.107 2.72789 102.784 2.97719ZM101.636 65.9411C100.665 66.1247 99.2571 66.9649 98.5848 67.7622C97.0313 69.605 96.7709 72.3527 97.9495 74.4668C99.2082 76.7244 101.581 77.7915 104.144 77.2529C105.321 77.0057 107.274 75.8635 107.274 75.4228C107.274 74.9552 106.741 74.9221 106.252 75.3591C105.203 76.2985 104.205 76.6221 102.657 76.5256C100.707 76.4038 99.5212 75.6485 98.6784 73.9918C97.0769 70.8432 98.8958 67.0355 102.175 66.6735C103.614 66.5147 104.699 66.749 105.745 67.4439C106.79 68.1388 107.601 68.0464 106.92 67.3096C105.904 66.2091 103.504 65.5878 101.636 65.9411ZM0.516801 66.3249C0.587687 66.6862 0.985831 66.7369 4.19673 66.7939C6.17682 66.829 7.79704 66.9029 7.79704 66.9582C7.79704 67.0133 6.09601 69.2242 4.01692 71.8712C1.93807 74.5179 0.236801 76.814 0.236328 76.973C0.236092 77.1943 1.29442 77.2624 4.74256 77.2624C8.90759 77.2624 9.24335 77.2316 9.1701 76.8573C9.09898 76.4953 8.6954 76.4455 5.37202 76.3885C3.32696 76.3534 1.65358 76.2795 1.65358 76.2242C1.65358 76.1689 3.35461 73.958 5.43369 71.311C7.51255 68.6642 9.21381 66.3684 9.21429 66.2091C9.21452 65.9881 8.17982 65.9198 4.8262 65.9198C0.773645 65.9198 0.443552 65.9508 0.516801 66.3249ZM12.0502 71.5911V77.2624H16.2025C20.0298 77.2624 20.3486 77.2307 20.2756 76.8573C20.2047 76.4959 19.8066 76.4453 16.5957 76.3883L12.9953 76.3244V74.1314V71.9383H16.1852C18.8631 71.9383 19.3751 71.8825 19.3751 71.5911C19.3751 71.2997 18.8631 71.2439 16.1852 71.2439H12.9953V69.0448V66.8457H16.5397C19.9264 66.8457 20.084 66.8251 20.084 66.3828C20.084 65.9378 19.9264 65.9198 16.0671 65.9198H12.0502V71.5911ZM23.0366 66.1858C22.9671 66.3633 22.9388 68.9008 22.974 71.8247C23.0319 76.6747 23.0737 77.1473 23.451 77.2184C23.8199 77.2878 23.8645 77.073 23.8645 75.227V73.1575L26.2002 73.0473C29.7356 72.8807 31.146 71.9654 31.3617 69.6985C31.4876 68.373 30.8591 67.2716 29.5491 66.5221C28.4934 65.9179 23.2476 65.6471 23.0366 66.1858ZM34.0249 71.5911C34.0249 76.4779 34.0738 77.2624 34.3793 77.2624C34.6737 77.2624 34.7337 76.8124 34.7337 74.6003V71.9383H38.3962H42.0586V74.6003C42.0586 77.108 42.086 77.2624 42.5312 77.2624C42.991 77.2624 43.0038 77.108 43.0038 71.5911C43.0038 66.0742 42.991 65.9198 42.5312 65.9198C42.086 65.9198 42.0586 66.0742 42.0586 68.5818V71.2439H38.3962H34.7337V68.5818C34.7337 66.3698 34.6737 65.9198 34.3793 65.9198C34.0738 65.9198 34.0249 66.7043 34.0249 71.5911ZM45.3667 66.0966C45.3667 66.1939 46.4299 67.7288 47.7295 69.5078L50.0924 72.7422V75.0193C50.0924 77.0631 50.1347 77.2883 50.5059 77.2189C50.8608 77.1522 50.9291 76.8172 50.9874 74.8557L51.0555 72.5698L53.0186 69.8814C54.0982 68.4027 55.1697 66.9064 55.3996 66.5564C55.8056 65.9383 55.8039 65.9198 55.3493 65.9198C55.0171 65.9198 54.2839 66.7596 52.8277 68.808C51.6982 70.3964 50.6966 71.7429 50.6021 71.8001C50.5075 71.8573 49.4835 70.5578 48.3264 68.9119C46.9375 66.9365 46.0772 65.9198 45.7946 65.9198C45.5592 65.9198 45.3667 65.9994 45.3667 66.0966ZM58.1261 71.5911C58.1261 76.4779 58.1751 77.2624 58.4806 77.2624C58.7719 77.2624 58.835 76.8508 58.835 74.9476V72.6328H60.7874H62.7399L64.3532 74.7052C66.2008 77.0786 66.4642 77.3297 66.9954 77.2237C67.2853 77.1656 66.937 76.5918 65.589 74.9078C64.6035 73.6763 63.797 72.6226 63.797 72.5663C63.797 72.5103 64.2845 72.2818 64.8804 72.0589C66.2468 71.5476 66.8666 70.6186 66.8678 69.0795C66.8685 68.1177 66.7572 67.8476 66.0897 67.1936C65.0579 66.1828 63.9735 65.9226 60.7844 65.9212L58.1261 65.9198V71.5911ZM69.7441 70.1237C69.8318 74.8786 69.9582 75.3335 71.5168 76.498C72.2627 77.0554 72.6363 77.1559 74.1752 77.2131C76.401 77.2957 77.5447 76.7492 78.4461 75.1721C79.0042 74.1957 79.0423 73.9052 79.1195 70.0286C79.2003 65.9851 79.1937 65.9198 78.706 65.9198C78.2221 65.9198 78.2105 66.0126 78.2101 69.9128C78.2098 74.4098 78.0274 75.0957 76.5806 76.0425C75.5256 76.733 73.469 76.7686 72.3752 76.1152C70.9 75.2339 70.7798 74.8226 70.6494 70.2161C70.5416 66.405 70.4934 66.0339 70.0986 65.9598C69.6898 65.8832 69.6704 66.1122 69.7441 70.1237ZM83.6598 66.3427C82.8604 66.7626 81.9911 67.9999 81.9911 68.7172C81.9911 69.5584 82.5495 70.5635 83.2524 70.9874C83.6633 71.2353 84.9563 71.7013 86.1257 72.023C87.5051 72.4029 88.3971 72.7841 88.6657 73.1091C89.1275 73.6677 89.2069 74.7453 88.8364 75.4233C88.0852 76.7985 85.2349 76.9422 83.2066 75.7068C82.5582 75.3119 81.9663 75.0492 81.8912 75.1226C81.536 75.4705 81.8496 75.9084 82.8772 76.5003C83.868 77.0709 84.2351 77.1466 86.008 77.1466C88.4158 77.1466 89.364 76.6587 89.8136 75.1883C90.4225 73.1976 89.3796 72.0115 86.3251 71.2209C83.9367 70.6029 82.9363 69.9156 82.9363 68.8932C82.9363 67.9596 83.289 67.3814 84.113 66.9638C85.1491 66.439 86.6982 66.5274 88.0292 67.1876C89.1393 67.7383 89.8165 67.683 89.4316 67.0733C88.7626 66.0126 85.1567 65.5561 83.6598 66.3427ZM113.253 67.7138C112.79 68.7003 111.627 71.1617 110.669 73.1832C109.711 75.2047 108.928 76.9494 108.928 77.0605C108.928 77.1716 109.093 77.2624 109.296 77.2624C109.524 77.2624 109.941 76.648 110.394 75.642L111.125 74.0216H114.481H117.837L118.599 75.642C119.164 76.8416 119.482 77.2624 119.824 77.2624C120.184 77.2624 120.241 77.1728 120.084 76.8573C119.972 76.6346 118.772 74.0839 117.417 71.1892C115.529 67.1573 114.853 65.9253 114.524 65.923C114.218 65.9207 113.854 66.4332 113.253 67.7138ZM122.632 71.5631C122.632 77.108 122.645 77.2624 123.105 77.2624C123.542 77.2624 123.578 77.108 123.578 75.2101V73.1575L125.881 73.0473C129.553 72.8714 130.982 71.8735 131.008 69.4675C131.023 68.0932 130.511 67.2397 129.235 66.5075C128.597 66.1418 127.877 66.0351 125.538 65.9587L122.632 65.864V71.5631ZM133.738 71.5911C133.738 76.9001 133.767 77.2909 134.151 77.2184C134.532 77.1466 134.565 76.692 134.565 71.5911C134.565 66.4902 134.532 66.0355 134.151 65.9638C133.767 65.8913 133.738 66.2821 133.738 71.5911ZM137.282 66.3828C137.282 66.8094 137.44 66.8457 139.291 66.8457H141.299V72.054C141.299 76.5293 141.349 77.2624 141.654 77.2624C141.958 77.2624 142.008 76.5293 142.008 72.054V66.8457H144.016C145.867 66.8457 146.025 66.8094 146.025 66.3828C146.025 65.9365 145.867 65.9198 141.654 65.9198C137.44 65.9198 137.282 65.9365 137.282 66.3828ZM148.998 71.4089C147.579 74.4374 146.376 76.9932 146.326 77.0888C146.275 77.1844 146.436 77.2624 146.685 77.2624C147.016 77.2624 147.33 76.8328 147.867 75.642L148.597 74.0216L151.978 74.0228L155.358 74.024L156.107 75.6432C156.575 76.6552 156.996 77.2624 157.23 77.2624C157.435 77.2624 157.603 77.1793 157.603 77.0779C157.603 76.9765 156.45 74.4503 155.04 71.4645C153.124 67.4054 152.364 66.0189 152.028 65.9691C151.653 65.9138 151.147 66.8214 148.998 71.4089ZM160.202 71.5911V77.2624H164C167.49 77.2624 167.791 77.2295 167.719 76.8573C167.648 76.4978 167.261 76.445 164.275 76.3881L160.911 76.3237V71.1219C160.911 66.6522 160.861 65.9198 160.557 65.9198C160.251 65.9198 160.202 66.7043 160.202 71.5911ZM23.8645 69.4874V72.1698H25.9987C29.293 72.1698 30.4806 71.4517 30.4806 69.4598C30.4806 68.6973 30.3242 68.3017 29.7916 67.7175L29.1026 66.9615L26.4836 66.8832L23.8645 66.8047V69.4874ZM58.835 69.2573V71.7068H61.446C64.4017 71.7068 65.211 71.4441 65.8225 70.286C66.3114 69.3596 66.1067 68.2527 65.3109 67.5193C64.7497 67.0022 64.4915 66.9559 61.7702 66.8846L58.835 66.808V69.2573ZM123.578 69.5078V72.1698H125.712C128.217 72.1698 129.294 71.8138 129.824 70.8105C130.296 69.9149 130.297 68.7135 129.825 68.0534C129.157 67.1196 128.252 66.8457 125.834 66.8457H123.578V69.5078ZM114.157 67.5603C114.035 67.8675 113.393 69.2494 112.731 70.6314C112.069 72.0131 111.527 73.1851 111.527 73.2355C111.527 73.286 112.856 73.3272 114.481 73.3272C116.105 73.3272 117.434 73.2834 117.434 73.2297C117.434 73.011 114.787 67.4084 114.592 67.2131C114.465 67.0869 114.29 67.227 114.157 67.5603ZM150.681 69.6365C148.703 73.7466 148.551 73.3272 152.023 73.3272H154.98L153.846 70.8323C153.222 69.4603 152.544 68.0279 152.339 67.6494L151.967 66.9615L150.681 69.6365Z" fill="white"/>
</svg>
